<svg xmlns="http://www.w3.org/2000/svg" width="999.051" height="1250" viewBox="0 0 999.051 1250"><defs><style>.cls-1{fill:#fff;}.cls-2{fill:#eb4d97;}.cls-3{fill:#ffc600;}.cls-4{fill:#00a85d;}.cls-5{fill:#ff675d;}</style></defs><title>NeXT-Computers-1986</title><g id="NeXT_Computers_1986"><path class="cls-1" d="M58.812 327.872l616.57-327.872 323.669 608.777-105.619 323.639-597.223 317.584-296.209-557.197 51.707-331.368 7.105-33.563z"/><path d="M58.753 327.933l616.631-327.52 321.985 606.21-616.631 327.52zM558.435 476.192l15.743 29.614 113.215-60.205 120.392 226.448 29.611-15.745-120.395-226.446 113.212-60.203-15.744-29.613-256.034 136.15z"/><path class="cls-2" d="M558.435 476.192l256.034-136.15 15.744 29.613-113.212 60.203 120.395 226.446-29.611 15.745-120.392-226.448-113.215 60.205-15.743-29.614z"/><path d="M272.131 575.447l-29.609 15.746-136.137-256.059 318.068 85.581-105.577-198.574 29.609-15.746 140.768 264.767-316.214-82.098 99.092 186.383z"/><path class="cls-3" d="M490.251 303.096a119.283 119.283 0 0 0 221.701-70.934l33.35-2.977a152.818 152.818 0 1 1-17.31-58.134q1.161 2.183 2.243 4.385z"/><path d="M681.813 162.832a119.299 119.299 0 0 0-204.521 108.498z"/><path class="cls-4" d="M439.31 700.708l-166.683-48.776 9.787-32.018 167.147 49.647 50.977-166.755 32.477 10.66-51.032 164.55 169.354 49.591-8.454 32.426-170.686-50-50.513 167.627-33.349-10.197c0-.001 50.106-166.293 50.975-166.755z"/><path class="cls-5" d="M242.522 591.193l-136.137-256.059 318.068 85.581-105.577-198.574 29.609-15.746 140.768 264.767-316.214-82.098 99.092 186.383-29.609 15.746z"/><path d="M388.35 955.222l601.768-319.999-96.686 297.193-585.22 311.201 80.138-288.395zM288.02 1234.531l78.1-281.723-314.413-591.373-51.707 331.368 288.02 541.728zM847.984 988.843a15.684 15.684 0 1 0 15.722 15.602 15.643 15.643 0 0 0-15.722-15.602zm0 29.063c-7.339 0-12.958-5.788-12.958-13.461a12.912 12.912 0 0 1 12.958-13.293c7.254 0 12.87 5.785 12.87 13.293.001 7.673-5.616 13.461-12.87 13.461zM850.544 1005.575c2.726-.292 4.823-1.676 4.823-4.989 0-3.522-2.053-5.242-6.416-5.242h-7.085v18.326h2.85v-7.885h3.02l4.991 7.885h3.059zm-2.852-2.114h-2.976v-5.832h3.773c1.929 0 4.026.378 4.026 2.811 0 2.894-2.304 3.021-4.823 3.021z"/></g></svg>